HIERARCHY
ROOT root     
{
	OFFSET 0.0000 0.0000 0.0000
	CHANNELS 6 Xposition Yposition Zposition Zrotation Yrotation Xrotation
	JOINT pelvis   
	{
		OFFSET 0.0000 0.0000 0.0000
		CHANNELS 3 Zrotation Yrotation Xrotation
		JOINT thorax   
		{
			OFFSET 0.0000 23.0750 -5.0000
			CHANNELS 3 Zrotation Yrotation Xrotation
			JOINT rclavicle
			{
				OFFSET 0.0000 28.0009 0.0000
				CHANNELS 3 Zrotation Yrotation Xrotation
				JOINT rhumerus 
				{
					OFFSET -18.5725 5.5939 0.0000
					CHANNELS 3 Zrotation Yrotation Xrotation
					JOINT rradius  
					{
						OFFSET -24.8459 0.0000 0.0000
						CHANNELS 3 Zrotation Yrotation Xrotation
						JOINT rhand    
						{
							OFFSET -24.5477 0.0000 0.0000
							CHANNELS 3 Zrotation Yrotation Xrotation
							End Site
							{
								OFFSET -8.1826 0.0000 0.0000
							}
						}
					}
				}
			}
			JOINT lclavicle
			{
				OFFSET 0.0000 28.0009 0.0000
				CHANNELS 3 Zrotation Yrotation Xrotation
				JOINT lhumerus 
				{
					OFFSET 18.5725 5.5939 0.0000
					CHANNELS 3 Zrotation Yrotation Xrotation
					JOINT lradius  
					{
						OFFSET 24.8459 0.0000 0.0000
						CHANNELS 3 Zrotation Yrotation Xrotation
						JOINT lhand    
						{
							OFFSET 24.5477 0.0000 0.0000
							CHANNELS 3 Zrotation Yrotation Xrotation
							End Site
							{
								OFFSET 8.1826 0.0000 0.0000
							}
						}
					}
				}
			}
			JOINT head     
			{
				OFFSET 0.0000 35.2030 0.0000
				CHANNELS 3 Zrotation Yrotation Xrotation
				End Site
				{
					OFFSET 0.0000 11.7343 0.0000
				}
			}
		}
		JOINT rfemur   
		{
			OFFSET -8.2817 0.0000 0.0000
			CHANNELS 3 Zrotation Yrotation Xrotation
			JOINT rtibia   
			{
				OFFSET 0.0000 -43.3627 0.0000
				CHANNELS 3 Zrotation Yrotation Xrotation
				JOINT rfoot    
				{
					OFFSET 0.0000 -38.2947 0.0000
					CHANNELS 3 Zrotation Yrotation Xrotation
					JOINT rtoes    
					{
						OFFSET 0.0000 0.0000 16.6054
						CHANNELS 3 Zrotation Yrotation Xrotation
						End Site
						{
							OFFSET 0.0000 0.0000 5.5351
						}
					}
				}
			}
		}
		JOINT lfemur   
		{
			OFFSET 8.2817 0.0000 0.0000
			CHANNELS 3 Zrotation Yrotation Xrotation
			JOINT ltibia   
			{
				OFFSET 0.0000 -43.3627 0.0000
				CHANNELS 3 Zrotation Yrotation Xrotation
				JOINT lfoot    
				{
					OFFSET 0.0000 -38.2947 0.0000
					CHANNELS 3 Zrotation Yrotation Xrotation
					JOINT ltoes    
					{
						OFFSET 0.0000 0.0000 16.6054
						CHANNELS 3 Zrotation Yrotation Xrotation
						End Site
						{
							OFFSET 0.0000 0.0000 5.5351
						}
					}
				}
			}
		}
	}
}
MOTION
Frames: 22
Frame Time: 0.008333
-66.1198 80.2253 118.5080 -4.6191 76.4199 11.5048 0.0000 -0.0000 0.0000 -8.9150 3.9930 -11.7364 30.4736 -0.6951 0.0000 48.6079 16.7226 7.4120 -0.0000 36.7436 -0.0000 1.6254 7.3033 0.1037 -30.2801 12.2201 -0.0000 -46.7916 6.1011 2.8361 0.0000 -10.0237 -0.0000 3.1187 1.7167 0.0467 2.9499 5.0083 -0.6883 -4.6749 -4.5995 10.7135 -0.0000 -0.0000 20.8768 -0.0000 8.6974 18.3202 2.7529 0.0000 -88.9406 -5.2713 4.9949 -50.1603 -0.0000 -0.0000 30.8372 0.0000 7.6787 8.3875 1.1267 -0.0000 -11.5206
-64.8442 80.3236 118.5070 -2.5292 76.3541 13.5674 0.0000 -0.0000 0.0000 -9.7148 3.8547 -11.9355 30.7947 -0.8129 -0.0000 49.0172 16.0433 7.7328 -0.0000 36.4141 -0.0000 1.7593 7.2839 0.1120 -29.9943 11.9485 0.0000 -46.7302 5.7453 2.5562 0.0000 -9.4451 -0.0000 3.2246 1.7279 0.0486 3.3089 4.8176 -0.6470 -5.4419 -4.5385 9.6535 -0.0000 -0.0000 23.6538 -0.0000 9.0871 20.5368 3.2115 0.0000 -89.8427 -5.8298 4.8398 -49.8734 -0.0000 -0.0000 31.7395 0.0000 7.7950 8.4965 1.1587 0.0000 -11.8095
-63.5870 80.4230 118.4960 -0.4862 76.2735 15.5765 0.0000 -0.0000 0.0000 -10.4580 3.6845 -12.1003 31.0885 -0.9234 -0.0000 49.4436 15.4030 8.0061 -0.0000 36.0016 -0.0000 1.9268 7.2581 0.1222 -29.7154 11.6684 -0.0000 -46.6816 5.3525 2.3246 0.0000 -8.9074 -0.0000 3.2982 1.7568 0.0506 3.6152 4.6679 -0.6114 -6.1947 -4.5165 8.4252 -0.0000 -0.0000 26.6727 0.0000 9.3415 22.8239 3.6511 -0.0000 -89.8154 -6.3583 4.6361 -49.5056 -0.0000 -0.0000 32.5602 0.0000 7.8947 8.3454 1.1530 -0.0000 -11.9969
-62.3525 80.5221 118.4760 1.4852 76.1798 17.5137 0.0000 -0.0000 0.0000 -11.1332 3.4761 -12.2379 31.3520 -1.0253 -0.0000 49.8877 14.8071 8.2280 -0.0000 35.5022 -0.0000 2.1243 7.2267 0.1342 -29.4459 11.3874 -0.0000 -46.6466 4.9242 2.1499 0.0000 -8.4194 -0.0000 3.3432 1.7974 0.0525 3.8657 4.5696 -0.5715 -6.9235 -4.5353 7.0366 -0.0000 -0.0000 29.8930 0.0000 9.3927 25.1174 4.0165 0.0000 -88.7138 -6.8545 4.3836 -49.0652 -0.0000 -0.0000 33.2980 -0.0000 7.9856 7.9493 1.1115 0.0000 -12.0753
-61.1447 80.6209 118.4490 3.3348 76.0776 19.3351 0.0000 -0.0000 0.0000 -11.7224 3.2246 -12.3568 31.5821 -1.1161 0.0000 50.3494 14.2556 8.3904 -0.0000 34.9150 -0.0000 2.3464 7.1905 0.1474 -29.1913 11.1108 0.0000 -46.6233 4.4658 2.0371 0.0000 -7.9908 -0.0000 3.3662 1.8423 0.0541 4.0589 4.5310 -0.5163 -7.6075 -4.5876 5.5016 -0.0000 -0.0000 33.2617 -0.0000 9.1647 27.3322 4.2365 -0.0000 -86.4850 -7.3145 4.0935 -48.5665 -0.0000 -0.0000 33.9548 0.0000 8.0706 7.3372 1.0374 -0.0000 -12.0478
-59.9643 80.7207 118.4160 5.0682 75.9702 21.0469 0.0000 -0.0000 0.0000 -12.2266 2.9252 -12.4607 31.7813 -1.1935 0.0000 50.8284 13.7438 8.4807 -0.0000 34.2435 -0.0000 2.5839 7.1490 0.1614 -28.9516 10.8440 0.0000 -46.6083 3.9796 1.9938 0.0000 -7.6294 -0.0000 3.3774 1.8830 0.0555 4.2007 4.5566 -0.4358 -8.2444 -4.6738 3.8407 -0.0000 -0.0000 36.7227 -0.0000 8.6004 29.3659 4.2417 -0.0000 -83.2327 -7.7463 3.7744 -48.0142 -0.0000 -0.0000 34.5226 -0.0000 8.1590 6.5527 0.9373 -0.0000 -11.9290
-58.8100 80.8244 118.3770 6.7100 75.8599 22.6712 0.0000 -0.0000 0.0000 -12.6550 2.5752 -12.5501 31.9558 -1.2600 0.0000 51.3217 13.2702 8.4925 -0.0000 33.4910 -0.0000 2.8212 7.1037 0.1752 -28.7258 10.5917 -0.0000 -46.5965 3.4666 2.0279 0.0000 -7.3422 -0.0000 3.3887 1.9110 0.0565 4.3013 4.6469 -0.3225 -8.8365 -4.7902 2.0793 -0.0000 -0.0000 40.2167 0.0000 7.6634 31.1146 3.9775 -0.0000 -79.2335 -8.1619 3.4356 -47.4088 -0.0000 -0.0000 34.9896 -0.0000 8.2602 5.6487 0.8187 0.0000 -11.7423
-57.6817 80.9353 118.3380 8.2073 75.7532 24.1550 0.0000 -0.0000 0.0000 -12.9924 2.1783 -12.6263 32.1074 -1.3207 0.0000 51.8238 12.8337 8.4242 -0.0000 32.6613 -0.0000 3.0382 7.0572 0.1874 -28.5210 10.3559 -0.0000 -46.5786 2.9308 2.1449 0.0000 -7.1381 -0.0000 3.4117 1.9200 0.0572 4.3652 4.7994 -0.1705 -9.3573 -4.9120 0.2418 -0.0000 -0.0000 43.6801 -0.0000 6.3327 32.4915 3.4117 -0.0000 -74.8859 -8.5571 3.1042 -46.7600 -0.0000 -0.0000 35.3573 -0.0000 8.3672 4.6756 0.6869 -0.0000 -11.5119
-56.5750 81.0579 118.2950 9.6487 75.6456 25.5794 0.0000 -0.0000 0.0000 -13.2744 1.7369 -12.6878 32.2463 -1.3631 0.0000 52.3351 12.4019 8.2319 -0.0000 31.7819 -0.0000 3.2318 7.0019 0.1978 -28.3278 10.1330 -0.0000 -46.5495 2.3795 2.3405 0.0000 -7.0246 -0.0000 3.4583 1.9055 0.0575 4.4112 5.0064 0.0233 -9.8322 -5.0332 -1.6471 -0.0000 -0.0000 47.0647 0.0000 4.6548 33.4242 2.5680 -0.0000 -70.6056 -8.9542 2.7802 -46.0555 -0.0000 -0.0000 35.6015 -0.0000 8.4941 3.6936 0.5512 -0.0000 -11.2720
-55.4908 81.1952 118.2600 10.9065 75.5485 26.8188 0.0000 -0.0000 0.0000 -13.4625 1.2646 -12.7341 32.3707 -1.4103 -0.0000 52.8426 11.9978 7.9534 -0.0000 30.8448 -0.0000 3.3661 6.9509 0.2045 -28.1619 9.9239 -0.0000 -46.4969 1.8139 2.6219 0.0000 -7.0102 -0.0000 3.5375 1.8660 0.0576 4.4366 5.2598 0.2565 -10.2090 -5.1100 -3.5685 -0.0000 -0.0000 50.3188 -0.0000 2.6802 33.8732 1.4946 0.0000 -66.7064 -9.3289 2.5059 -45.3123 -0.0000 -0.0000 35.7401 -0.0000 8.6125 2.7390 0.4147 0.0000 -11.0423
-54.4245 81.3505 118.2300 12.0503 75.4569 27.9354 0.0000 -0.0000 0.0000 -13.5879 0.7699 -12.7620 32.4874 -1.4492 -0.0000 53.3456 11.5859 7.5459 -0.0000 29.8843 -0.0000 3.4432 6.8959 0.2075 -28.0144 9.7244 -0.0000 -46.4162 1.2382 2.9830 0.0000 -7.0996 -0.0000 3.6568 1.8023 0.0575 4.4562 5.5474 0.5256 -10.5125 -5.1341 -5.5045 -0.0000 -0.0000 53.4128 -0.0000 0.5300 33.8122 0.2950 0.0000 -63.3444 -9.6953 2.2804 -44.5167 -0.0000 -0.0000 35.7541 -0.0000 8.7274 1.8560 0.2849 0.0000 -10.8487
-53.3739 81.5256 118.2070 13.0686 75.3720 28.9139 0.0000 -0.0000 0.0000 -13.6535 0.2657 -12.7676 32.5983 -1.4872 0.0000 53.8368 11.1633 7.0159 -0.0000 28.9141 -0.0000 3.4511 6.8405 0.2063 -27.8854 9.5326 0.0000 -46.3016 0.6532 3.4201 0.0000 -7.2967 -0.0000 3.8201 1.7172 0.0573 4.4753 5.8568 0.8224 -10.7404 -5.0883 -7.4403 -0.0000 -0.0000 56.3196 0.0000 -1.6692 33.2414 -0.9152 -0.0000 -60.5239 -10.0483 2.1144 -43.6653 -0.0000 -0.0000 35.6421 -0.0000 8.8276 1.0698 0.1661 0.0000 -10.7037
-52.3380 81.7208 118.1980 13.9049 75.3000 29.6976 0.0000 -0.0000 0.0000 -13.6448 -0.2333 -12.7498 32.7004 -1.5362 -0.0000 54.3066 10.7351 6.3887 -0.0000 27.9428 -0.0000 3.3780 6.7909 0.2005 -27.7795 9.3435 0.0000 -46.1490 0.0640 3.9216 0.0000 -7.6063 -0.0000 4.0275 1.6148 0.0568 4.4913 6.1760 1.1373 -10.8764 -4.9547 -9.3654 -0.0000 -0.0000 59.0143 0.0000 -3.7956 32.1890 -2.0241 -0.0000 -58.1591 -10.3712 2.0238 -42.7622 -0.0000 -0.0000 35.4150 0.0000 8.8928 0.3888 0.0608 0.0000 -10.6072
-51.3128 81.9353 118.2000 14.6054 75.2365 30.3259 0.0000 -0.0000 0.0000 -13.5834 -0.7185 -12.7026 32.7951 -1.5940 -0.0000 54.7510 10.2888 5.6662 -0.0000 26.9896 -0.0000 3.2297 6.7470 0.1904 -27.6887 9.1557 -0.0000 -45.9588 -0.5292 4.4733 0.0000 -8.0276 -0.0000 4.2759 1.4990 0.0560 4.5094 6.4950 1.4599 -10.9451 -4.7352 -11.2650 -0.0000 -0.0000 61.4784 -0.0000 -5.7254 30.7051 -2.9307 0.0000 -56.1214 -10.6687 1.9982 -41.7931 -0.0000 -0.0000 35.0636 -0.0000 8.9229 -0.1811 -0.0284 0.0000 -10.5543
-50.2960 82.1672 118.2130 15.1599 75.1836 30.7864 0.0000 -0.0000 0.0000 -13.4687 -1.1805 -12.6232 32.8800 -1.6629 -0.0000 55.1634 9.8193 4.8627 -0.0000 26.0713 -0.0000 3.0193 6.7055 0.1769 -27.6124 8.9702 0.0000 -45.7311 -1.1285 5.0645 0.0000 -8.5586 -0.0000 4.5592 1.3748 0.0547 4.5265 6.8047 1.7792 -10.9515 -4.4294 -13.1275 -0.0000 -0.0000 63.6934 0.0000 -7.3693 28.8644 -3.5726 0.0000 -54.2447 -10.9313 2.0311 -40.7532 -0.0000 -0.0000 34.5910 0.0000 8.9126 -0.6482 -0.1016 0.0000 -10.5340
-49.2855 82.4136 118.2390 15.5663 75.1425 31.0756 0.0000 -0.0000 0.0000 -13.3013 -1.6142 -12.5099 32.9520 -1.7458 -0.0000 55.5375 9.3277 4.0058 -0.0000 25.1951 -0.0000 2.7594 6.6664 0.1607 -27.5490 8.7874 0.0000 -45.4683 -1.7326 5.6771 0.0000 -9.1963 -0.0000 4.8689 1.2447 0.0529 4.5384 7.1000 2.0858 -10.9034 -4.0428 -14.9429 -0.0000 -0.0000 65.6430 0.0000 -8.6705 26.7609 -3.9280 0.0000 -52.4055 -11.1523 2.1133 -39.6384 -0.0000 -0.0000 34.0015 -0.0000 8.8602 -1.0278 -0.1602 -0.0000 -10.5293
-48.2792 82.6710 118.2770 15.8257 75.1145 31.1941 0.0000 -0.0000 0.0000 -13.0812 -2.0177 -12.3624 33.0077 -1.8424 0.0000 55.8683 8.8133 3.1202 -0.0000 24.3673 -0.0000 2.4704 6.6255 0.1430 -27.4973 8.6101 0.0000 -45.1735 -2.3418 6.2945 0.0000 -9.9359 -0.0000 5.1950 1.1100 0.0504 4.5399 7.3788 2.3722 -10.8096 -3.5864 -16.7030 -0.0000 -0.0000 67.3142 -0.0000 -9.6068 24.4996 -4.0150 -0.0000 -50.5100 -11.3261 2.2315 -38.4465 -0.0000 -0.0000 33.3001 -0.0000 8.7692 -1.3388 -0.2065 -0.0000 -10.5245
-47.2749 82.9356 118.3240 15.9480 75.0998 31.1511 0.0000 -0.0000 0.0000 -12.8110 -2.3926 -12.1796 33.0460 -1.9581 0.0000 56.1500 8.2865 2.2457 -0.0000 23.5849 -0.0000 2.1709 6.5793 0.1248 -27.4558 8.4455 -0.0000 -44.8504 -2.9610 6.9048 0.0000 -10.7689 -0.0000 5.5274 0.9711 0.0469 4.5263 7.6419 2.6324 -10.6798 -3.0763 -18.4003 -0.0000 -0.0000 68.6971 0.0000 -10.1873 22.1874 -3.8822 0.0000 -48.5088 -11.4506 2.3711 -37.1745 -0.0000 -0.0000 32.4903 -0.0000 8.6476 -1.5997 -0.2433 -0.0000 -10.5077
-46.2724 83.2034 118.3820 15.9193 75.1020 30.9388 0.0000 -0.0000 0.0000 -12.4825 -2.7435 -11.9701 33.0606 -2.0775 -0.0000 56.3836 7.7306 1.3782 -0.0000 22.8566 -0.0000 1.8906 6.5173 0.1077 -27.4247 8.2909 -0.0000 -44.5043 -3.5784 7.4841 0.0000 -11.6920 -0.0000 5.8562 0.8261 0.0423 4.4910 7.8921 2.8664 -10.5121 -2.5284 -20.0360 -0.0000 -0.0000 69.7860 -0.0000 -10.4516 19.9255 -3.5972 0.0000 -46.4114 -11.5197 2.5230 -35.8329 -0.0000 -0.0000 31.5856 -0.0000 8.5010 -1.8294 -0.2734 -0.0000 -10.4718
-45.2702 83.4709 118.4480 15.7541 75.1216 30.5732 0.0000 -0.0000 0.0000 -12.0991 -3.0776 -11.7364 33.0513 -2.1976 0.0000 56.5665 7.1482 0.5369 -0.0000 22.1789 -0.0000 1.6510 6.4331 0.0928 -27.4020 8.1506 -0.0000 -44.1393 -4.1925 8.0193 0.0000 -12.6972 -0.0000 6.1728 0.6738 0.0363 4.4317 8.1340 3.0743 -10.3121 -1.9622 -21.6067 -0.0000 -0.0000 70.5782 -0.0000 -10.4541 17.7966 -3.2277 -0.0000 -44.2710 -11.5365 2.6769 -34.4254 -0.0000 -0.0000 30.5925 0.0000 8.3393 -2.0401 -0.2990 -0.0000 -10.4173
-44.2681 83.7349 118.5230 15.4530 75.1610 30.0602 0.0000 -0.0000 0.0000 -11.6594 -3.4038 -11.4845 33.0189 -2.3270 -0.0000 56.6953 6.5581 -0.2357 -0.0000 21.5359 -0.0000 1.4601 6.3251 0.0807 -27.3871 8.0354 0.0000 -43.7589 -4.8112 8.5103 0.0000 -13.7714 -0.0000 6.4709 0.5130 0.0290 4.3466 8.3728 3.2578 -10.0775 -1.3942 -23.1130 -0.0000 -0.0000 71.0742 0.0000 -10.2612 15.8601 -2.8323 -0.0000 -42.1773 -11.5024 2.8295 -32.9639 -0.0000 -0.0000 29.5237 -0.0000 8.1682 -2.2404 -0.3215 0.0000 -10.3506
-43.2658 83.9925 118.6040 15.0262 75.2221 29.4153 0.0000 -0.0000 0.0000 -11.1652 -3.7309 -11.2237 32.9616 -2.4391 0.0000 56.7761 5.9298 -0.9809 -0.0000 20.9415 -0.0000 1.3432 6.1832 0.0725 -27.3757 7.9314 -0.0000 -43.3696 -5.4081 8.9277 0.0000 -14.9145 -0.0000 6.7441 0.3427 0.0202 4.2363 8.6127 3.4241 -9.8071 -0.8386 -24.5555 -0.0000 -0.0000 71.2785 0.0000 -9.9399 14.1435 -2.4520 -0.0000 -40.2204 -11.4225 2.9808 -31.4618 -0.0000 -0.0000 28.3927 0.0000 7.9904 -2.4335 -0.3415 -0.0000 -10.2832
